<svg aria-hidden="true" style="display: none;">
    <symbol id="i-switch-theme" viewBox="0 0 24 24">
        <path d="M12.9999 12C12.9999 15.3137 10.3136 18 6.99986 18C3.68615 18 5.5 15.8137 5.5 12.5C5.5 9.18629 3.68615 6 6.99986 6C10.3136 6 12.9999 8.68629 12.9999 12Z" to="M16 12C16 14.2091 14.1875 16 12 16C9.79086 16 8 14.2091 8 12C8 9.79086 9.79086 8 12 8C14.2091 8 16 9.79086 16 12Z">
            <animate class="spot-light-mode"
                     attributeName="d"
                     attributeType="XML"
                     dur="0.3s"
                     begin="none"
                     fill="freeze"
                     from="M16 12C16 14.2091 14.1875 16 12 16C9.79086 16 8 14.2091 8 12C8 9.79086 9.79086 8 12 8C14.2091 8 16 9.79086 16 12Z" to="M12.9999 12C12.9999 15.3137 10.3136 18 6.99986 18C3.68615 18 5.5 15.8137 5.5 12.5C5.5 9.18629 3.68615 6 6.99986 6C10.3136 6 12.9999 8.68629 12.9999 12Z"/>
            <animate class="spot-dark-mode"
                     attributeName="d"
                     attributeType="XML"
                     dur="0.3s"
                     begin="none"
                     fill="freeze"
                     from="M12.9999 12C12.9999 15.3137 10.3136 18 6.99986 18C3.68615 18 5.5 15.8137 5.5 12.5C5.5 9.18629 3.68615 6 6.99986 6C10.3136 6 12.9999 8.68629 12.9999 12Z" to="M16 12C16 14.2091 14.1875 16 12 16C9.79086 16 8 14.2091 8 12C8 9.79086 9.79086 8 12 8C14.2091 8 16 9.79086 16 12Z"/>
        </path>
        <path d="M.686 12 4 8.686V4h4.686L12 .686 15.314 4H20v4.686L23.314 12 20 15.314V20h-4.686L12 23.314 8.686 20H4v-4.686L.686 12ZM12 18a6 6 0 1 0 0-12 6 6 0 0 0 0 12Z">
            <animateTransform class="halo-light-mode"
                              attributeName="transform"
                              attributeType="XML"
                              type="rotate"
                              from="0 12 12"
                              to="360 12 12"
                              dur="0.35s"
                              repeatCount="1"/>
            <animateTransform class="halo-dark-mode"
                              attributeName="transform"
                              attributeType="XML"
                              type="rotate"
                              from="360 12 12"
                              to="0 12 12"
                              dur="0.35s"
                              repeatCount="1"/>
        </path>
    </symbol>
    <symbol id="i-switch-theme" viewBox="0 0 24 24">
        <polygon points="8,6 6,6 5,7 5,8 5,9 6,11 6,13 5,15 5,16 5,17 6,18 8,18 9.8,17.4 11.3,16.3 12.4,14.8 13,13 13,11 12.4,9.2 11.3,7.7 9.8,6.6">
            <animate id="to-dark" begin="indefinite" fill="freeze" attributeName="points" dur="350ms" to="12.6,8 11.4,8 10.2,8.4 9.1,9.1 8.4,10.2 8,11.4 8,12.6 8.4,13.8 9.1,14.9 10.2,15.6 11.4,16 12.6,16 13.8,15.6 14.9,14.9 15.6,13.8 16,12.6 16,11.4 15.6,10.2 14.9,9.1 13.8,8.4"/>
            <animate id="to-light" begin="indefinite" fill="freeze" attributeName="points" dur="350ms" to="8,6 6,6 5,7 5,8 5,9 6,11 6,13 5,15 5,16 5,17 6,18 8,18 9.8,17.4 11.3,16.3 12.4,14.8 13,13 13,11 12.4,9.2 11.3,7.7 9.8,6.6"/>
        </polygon>
        <path id="to-halo" d="M12.0001 6C15.3101 6 18.0001 8.69 18.0001 12C18.0001 15.31 15.3101 18 12.0001 18C8.69006 18 6.00006 15.31 6.00006 12C6.00006 8.69 8.69006 6 12.0001 6ZM4.00006 15.31V20H8.69006L12.0001 23.31L15.3101 20H20.0001V15.31L23.3101 12L20.0001 8.69V4H15.3101L12.0001 0.689997L8.69006 4H4.00006V8.69L0.690058 12L4.00006 15.31Z"/>
    </symbol>
</svg>