<svg aria-hidden="true" style="display: none;">
    <symbol id="i-switch-theme" viewBox="0 0 24 24">
        <path d="M13 12C13 15.3137 10.3137 18 6.99997 18C3.68626 18 4.5 15.3137 4.5 12C4.5 8.68629 3.68626 6 6.99997 6C10.3137 6 13 8.68629 13 12Z" to="M16 12C16 14.2091 14.1875 16 12 16C9.79086 16 8 14.2091 8 12C8 9.79086 9.79086 8 12 8C14.2091 8 16 9.79086 16 12Z">
            <animate class="spot-light-mode"
                     attributeName="d"
                     attributeType="XML"
                     dur="0.3s"
                     begin="none"
                     fill="freeze"
                     from="M16 12C16 14.2091 14.1875 16 12 16C9.79086 16 8 14.2091 8 12C8 9.79086 9.79086 8 12 8C14.2091 8 16 9.79086 16 12Z" to="M13 12C13 15.3137 10.3137 18 6.99997 18C3.68626 18 4.5 15.3137 4.5 12C4.5 8.68629 3.68626 6 6.99997 6C10.3137 6 13 8.68629 13 12Z"/>
            <animate class="spot-dark-mode"
                     attributeName="d"
                     attributeType="XML"
                     dur="0.3s"
                     begin="none"
                     fill="freeze"
                     from="M13 12C13 15.3137 10.3137 18 6.99997 18C3.68626 18 4.5 15.3137 4.5 12C4.5 8.68629 3.68626 6 6.99997 6C10.3137 6 13 8.68629 13 12Z" to="M16 12C16 14.2091 14.1875 16 12 16C9.79086 16 8 14.2091 8 12C8 9.79086 9.79086 8 12 8C14.2091 8 16 9.79086 16 12Z"/>
        </path>
        <path d="M.686 12 4 8.686V4h4.686L12 .686 15.314 4H20v4.686L23.314 12 20 15.314V20h-4.686L12 23.314 8.686 20H4v-4.686L.686 12ZM12 18a6 6 0 1 0 0-12 6 6 0 0 0 0 12Z">
            <animateTransform class="halo-light-mode"
                              attributeName="transform"
                              attributeType="XML"
                              type="rotate"
                              from="0 12 12"
                              to="360 12 12"
                              dur="0.35s"
                              repeatCount="1"/>
            <animateTransform class="halo-dark-mode"
                              attributeName="transform"
                              attributeType="XML"
                              type="rotate"
                              from="360 12 12"
                              to="0 12 12"
                              dur="0.35s"
                              repeatCount="1"/>
        </path>
    </symbol>
</svg>